<?xml version="1.0" encoding="utf-8"?>
<!-- created with bpmn-js / http://bpmn.io -->
<!DOCTYPE svg PUBLIC "-//W3C//DTD SVG 1.1//EN" "http://www.w3.org/Graphics/SVG/1.1/DTD/svg11.dtd">
<svg xmlns="http://www.w3.org/2000/svg" xmlns:xlink="http://www.w3.org/1999/xlink" width="629" height="90" viewBox="155 135 669 130" version="1.1"><g class="djs-group"><g class="djs-element djs-shape" data-element-id="start" style="display: block;" transform="matrix(1 0 0 1 180 182)"><g class="djs-visual"><circle cx="18" cy="18" r="18" style="stroke-linecap: round; stroke-linejoin: round; stroke: #1a1a2e; stroke-width: 2px; fill: #ffffff; fill-opacity: 0.95;"/></g></g></g><g class="djs-group"><g class="djs-element djs-shape" data-element-id="setVar" style="display: block;" transform="matrix(1 0 0 1 280 160)"><g class="djs-visual"><rect x="0" y="0" width="100" height="80" rx="10" ry="10" style="stroke-linecap: round; stroke-linejoin: round; stroke: #1a1a2e; stroke-width: 2px; fill: #ffffff; fill-opacity: 0.95;"/><text lineHeight="1.2" class="djs-label" style="font-family: Arial, sans-serif; font-size: 12px; font-weight: normal; fill: #1a1a2e;"><tspan x="50" y="43.599999999999994"/></text><path d="m 15,20 c 9.966553,-6.27276 -8.000926,-7.91932 2.968968,-14.938 l -8.802728,0 c -10.969894,7.01868 6.997585,8.66524 -2.968967,14.938 z m -7,-12 l 5,0 m -4.5,3 l 4.5,0 m -3,3 l 5,0m -4,3 l 5,0" style="fill: #ffffff; stroke-linecap: round; stroke-linejoin: round; stroke: #1a1a2e; stroke-width: 1px;"/></g></g></g><g class="djs-group"><g class="djs-element djs-shape" data-element-id="incrementVar" style="display: block;" transform="matrix(1 0 0 1 440 160)"><g class="djs-visual"><rect x="0" y="0" width="100" height="80" rx="10" ry="10" style="stroke-linecap: round; stroke-linejoin: round; stroke: #1a1a2e; stroke-width: 2px; fill: #ffffff; fill-opacity: 0.95;"/><text lineHeight="1.2" class="djs-label" style="font-family: Arial, sans-serif; font-size: 12px; font-weight: normal; fill: #1a1a2e;"><tspan x="50" y="43.599999999999994"/></text><path d="m 15,20 c 9.966553,-6.27276 -8.000926,-7.91932 2.968968,-14.938 l -8.802728,0 c -10.969894,7.01868 6.997585,8.66524 -2.968967,14.938 z m -7,-12 l 5,0 m -4.5,3 l 4.5,0 m -3,3 l 5,0m -4,3 l 5,0" style="fill: #ffffff; stroke-linecap: round; stroke-linejoin: round; stroke: #1a1a2e; stroke-width: 1px;"/></g></g></g><g class="djs-group"><g class="djs-element djs-shape" data-element-id="createSecondVar" style="display: block;" transform="matrix(1 0 0 1 600 160)"><g class="djs-visual"><rect x="0" y="0" width="100" height="80" rx="10" ry="10" style="stroke-linecap: round; stroke-linejoin: round; stroke: #1a1a2e; stroke-width: 2px; fill: #ffffff; fill-opacity: 0.95;"/><text lineHeight="1.2" class="djs-label" style="font-family: Arial, sans-serif; font-size: 12px; font-weight: normal; fill: #1a1a2e;"><tspan x="50" y="43.599999999999994"/></text><path d="m 15,20 c 9.966553,-6.27276 -8.000926,-7.91932 2.968968,-14.938 l -8.802728,0 c -10.969894,7.01868 6.997585,8.66524 -2.968967,14.938 z m -7,-12 l 5,0 m -4.5,3 l 4.5,0 m -3,3 l 5,0m -4,3 l 5,0" style="fill: #ffffff; stroke-linecap: round; stroke-linejoin: round; stroke: #1a1a2e; stroke-width: 1px;"/></g></g></g><g class="djs-group"><g class="djs-element djs-shape" data-element-id="end" style="display: block;" transform="matrix(1 0 0 1 762 182)"><g class="djs-visual"><circle cx="18" cy="18" r="18" style="stroke-linecap: round; stroke-linejoin: round; stroke: #1a1a2e; stroke-width: 4px; fill: #ffffff; fill-opacity: 0.95;"/></g></g></g><g class="djs-group"><g class="djs-element djs-connection" data-element-id="f1" style="display: block;"><g class="djs-visual"><defs><marker id="marker-11ycq9s4goenqjj0xgtgl1kt0" viewBox="0 0 20 20" refX="11" refY="10" markerWidth="10" markerHeight="10" orient="auto"><path d="M 1 5 L 11 10 L 1 15 Z" style="stroke-linecap: round; stroke-linejoin: round; stroke: #1a1a2e; stroke-width: 1px; fill: #1a1a2e;"/></marker></defs><path data-corner-radius="5" style="fill: none; stroke-linecap: round; stroke-linejoin: round; stroke: #1a1a2e; stroke-width: 2px; marker-end: url('#marker-11ycq9s4goenqjj0xgtgl1kt0');" d="M216,200L280,200"/></g></g></g><g class="djs-group"><g class="djs-element djs-connection" data-element-id="f2" style="display: block;"><g class="djs-visual"><defs><marker id="marker-82riunn0h6n4pov52yajfe4fb" viewBox="0 0 20 20" refX="11" refY="10" markerWidth="10" markerHeight="10" orient="auto"><path d="M 1 5 L 11 10 L 1 15 Z" style="stroke-linecap: round; stroke-linejoin: round; stroke: #1a1a2e; stroke-width: 1px; fill: #1a1a2e;"/></marker></defs><path data-corner-radius="5" style="fill: none; stroke-linecap: round; stroke-linejoin: round; stroke: #1a1a2e; stroke-width: 2px; marker-end: url('#marker-82riunn0h6n4pov52yajfe4fb');" d="M380,200L440,200"/></g></g></g><g class="djs-group"><g class="djs-element djs-connection" data-element-id="f3" style="display: block;"><g class="djs-visual"><defs><marker id="marker-8a1ds6xmmvx6fdnrfg9wh5h1u" viewBox="0 0 20 20" refX="11" refY="10" markerWidth="10" markerHeight="10" orient="auto"><path d="M 1 5 L 11 10 L 1 15 Z" style="stroke-linecap: round; stroke-linejoin: round; stroke: #1a1a2e; stroke-width: 1px; fill: #1a1a2e;"/></marker></defs><path data-corner-radius="5" style="fill: none; stroke-linecap: round; stroke-linejoin: round; stroke: #1a1a2e; stroke-width: 2px; marker-end: url('#marker-8a1ds6xmmvx6fdnrfg9wh5h1u');" d="M540,200L600,200"/></g></g></g><g class="djs-group"><g class="djs-element djs-connection" data-element-id="f4" style="display: block;"><g class="djs-visual"><defs><marker id="marker-azxvg994q44x2cljjogi1dpd0" viewBox="0 0 20 20" refX="11" refY="10" markerWidth="10" markerHeight="10" orient="auto"><path d="M 1 5 L 11 10 L 1 15 Z" style="stroke-linecap: round; stroke-linejoin: round; stroke: #1a1a2e; stroke-width: 1px; fill: #1a1a2e;"/></marker></defs><path data-corner-radius="5" style="fill: none; stroke-linecap: round; stroke-linejoin: round; stroke: #1a1a2e; stroke-width: 2px; marker-end: url('#marker-azxvg994q44x2cljjogi1dpd0');" d="M700,200L762,200"/></g></g></g></svg>