<?xml version="1.0" encoding="utf-8"?>
<!-- created with bpmn-js / http://bpmn.io -->
<!DOCTYPE svg PUBLIC "-//W3C//DTD SVG 1.1//EN" "http://www.w3.org/Graphics/SVG/1.1/DTD/svg11.dtd">
<svg xmlns="http://www.w3.org/2000/svg" xmlns:xlink="http://www.w3.org/1999/xlink" width="619" height="90" viewBox="125 135 659 130" version="1.1"><g class="djs-group"><g class="djs-element djs-shape" data-element-id="start" style="display: block;" transform="matrix(1 0 0 1 150 182)"><g class="djs-visual"><circle cx="18" cy="18" r="18" style="stroke-linecap: round; stroke-linejoin: round; stroke: #e2e8f0; stroke-width: 2px; fill: #1e293b; fill-opacity: 0.95;"/></g></g></g><g class="djs-group"><g class="djs-element djs-shape" data-element-id="prepare" style="display: block;" transform="matrix(1 0 0 1 240 160)"><g class="djs-visual"><rect x="0" y="0" width="100" height="80" rx="10" ry="10" style="stroke-linecap: round; stroke-linejoin: round; stroke: #e2e8f0; stroke-width: 2px; fill: #1e293b; fill-opacity: 0.95;"/><text lineHeight="1.2" class="djs-label" style="font-family: Arial, sans-serif; font-size: 12px; font-weight: normal; fill: #e2e8f0;"><tspan x="50" y="43.599999999999994"/></text><path d="m 15,20 c 9.966553,-6.27276 -8.000926,-7.91932 2.968968,-14.938 l -8.802728,0 c -10.969894,7.01868 6.997585,8.66524 -2.968967,14.938 z m -7,-12 l 5,0 m -4.5,3 l 4.5,0 m -3,3 l 5,0m -4,3 l 5,0" style="fill: #1e293b; stroke-linecap: round; stroke-linejoin: round; stroke: #e2e8f0; stroke-width: 1px;"/></g></g></g><g class="djs-group"><g class="djs-element djs-shape" data-element-id="review" style="display: block;" transform="matrix(1 0 0 1 400 160)"><g class="djs-visual"><rect x="0" y="0" width="100" height="80" rx="10" ry="10" style="stroke-linecap: round; stroke-linejoin: round; stroke: #e2e8f0; stroke-width: 2px; fill: #1e293b; fill-opacity: 0.95;"/><text lineHeight="1.2" class="djs-label" style="font-family: Arial, sans-serif; font-size: 12px; font-weight: normal; fill: #e2e8f0;"><tspan x="30.16015625" y="36.4">Review </tspan><tspan x="27.3193359375" y="50.8">Request</tspan></text><path d="m 15,12 c 0.909,-0.845 1.594,-2.049 1.594,-3.385 0,-2.554 -1.805,-4.62199999 -4.357,-4.62199999 -2.55199998,0 -4.28799998,2.06799999 -4.28799998,4.62199999 0,1.348 0.974,2.562 1.89599998,3.405 -0.52899998,0.187 -5.669,2.097 -5.794,4.7560005 v 6.718 h 17 v -6.718 c 0,-2.2980005 -5.5279996,-4.5950005 -6.0509996,-4.7760005 zm -8,6 l 0,5.5 m 11,0 l 0,-5" style="fill: #1e293b; stroke-linecap: round; stroke-linejoin: round; stroke: #e2e8f0; stroke-width: 0.5px;"/><path d="m 15,12 m 2.162,1.009 c 0,2.4470005 -2.158,4.4310005 -4.821,4.4310005 -2.66499998,0 -4.822,-1.981 -4.822,-4.4310005 " style="fill: #1e293b; stroke-linecap: round; stroke-linejoin: round; stroke: #e2e8f0; stroke-width: 0.5px;"/><path d="m 15,12 m -6.9,-3.80 c 0,0 2.25099998,-2.358 4.27399998,-1.177 2.024,1.181 4.221,1.537 4.124,0.965 -0.098,-0.57 -0.117,-3.79099999 -4.191,-4.13599999 -3.57499998,0.001 -4.20799998,3.36699999 -4.20699998,4.34799999 z" style="fill: #e2e8f0; stroke-linecap: round; stroke-linejoin: round; stroke: #e2e8f0; stroke-width: 0.5px;"/></g></g></g><g class="djs-group"><g class="djs-element djs-shape" data-element-id="postReview" style="display: block;" transform="matrix(1 0 0 1 560 160)"><g class="djs-visual"><rect x="0" y="0" width="100" height="80" rx="10" ry="10" style="stroke-linecap: round; stroke-linejoin: round; stroke: #e2e8f0; stroke-width: 2px; fill: #1e293b; fill-opacity: 0.95;"/><text lineHeight="1.2" class="djs-label" style="font-family: Arial, sans-serif; font-size: 12px; font-weight: normal; fill: #e2e8f0;"><tspan x="50" y="43.599999999999994"/></text><path d="m 15,20 c 9.966553,-6.27276 -8.000926,-7.91932 2.968968,-14.938 l -8.802728,0 c -10.969894,7.01868 6.997585,8.66524 -2.968967,14.938 z m -7,-12 l 5,0 m -4.5,3 l 4.5,0 m -3,3 l 5,0m -4,3 l 5,0" style="fill: #1e293b; stroke-linecap: round; stroke-linejoin: round; stroke: #e2e8f0; stroke-width: 1px;"/></g></g></g><g class="djs-group"><g class="djs-element djs-shape" data-element-id="end" style="display: block;" transform="matrix(1 0 0 1 722 182)"><g class="djs-visual"><circle cx="18" cy="18" r="18" style="stroke-linecap: round; stroke-linejoin: round; stroke: #e2e8f0; stroke-width: 4px; fill: #1e293b; fill-opacity: 0.95;"/></g></g></g><g class="djs-group"><g class="djs-element djs-connection" data-element-id="f1" style="display: block;"><g class="djs-visual"><defs><marker id="marker-e4cnyjh3bme76m70wrjxrgb4z" viewBox="0 0 20 20" refX="11" refY="10" markerWidth="10" markerHeight="10" orient="auto"><path d="M 1 5 L 11 10 L 1 15 Z" style="stroke-linecap: round; stroke-linejoin: round; stroke: #e2e8f0; stroke-width: 1px; fill: #e2e8f0;"/></marker></defs><path data-corner-radius="5" style="fill: none; stroke-linecap: round; stroke-linejoin: round; stroke: #e2e8f0; stroke-width: 2px; marker-end: url('#marker-e4cnyjh3bme76m70wrjxrgb4z');" d="M186,200L240,200"/></g></g></g><g class="djs-group"><g class="djs-element djs-connection" data-element-id="f2" style="display: block;"><g class="djs-visual"><defs><marker id="marker-8lb3zoe1xhf7nndese7ukr3sb" viewBox="0 0 20 20" refX="11" refY="10" markerWidth="10" markerHeight="10" orient="auto"><path d="M 1 5 L 11 10 L 1 15 Z" style="stroke-linecap: round; stroke-linejoin: round; stroke: #e2e8f0; stroke-width: 1px; fill: #e2e8f0;"/></marker></defs><path data-corner-radius="5" style="fill: none; stroke-linecap: round; stroke-linejoin: round; stroke: #e2e8f0; stroke-width: 2px; marker-end: url('#marker-8lb3zoe1xhf7nndese7ukr3sb');" d="M340,200L400,200"/></g></g></g><g class="djs-group"><g class="djs-element djs-connection" data-element-id="f3" style="display: block;"><g class="djs-visual"><defs><marker id="marker-9qog2fl6e4lmze1dehouon3d4" viewBox="0 0 20 20" refX="11" refY="10" markerWidth="10" markerHeight="10" orient="auto"><path d="M 1 5 L 11 10 L 1 15 Z" style="stroke-linecap: round; stroke-linejoin: round; stroke: #e2e8f0; stroke-width: 1px; fill: #e2e8f0;"/></marker></defs><path data-corner-radius="5" style="fill: none; stroke-linecap: round; stroke-linejoin: round; stroke: #e2e8f0; stroke-width: 2px; marker-end: url('#marker-9qog2fl6e4lmze1dehouon3d4');" d="M500,200L560,200"/></g></g></g><g class="djs-group"><g class="djs-element djs-connection" data-element-id="f4" style="display: block;"><g class="djs-visual"><defs><marker id="marker-enmo7qdwm5w1f1pau7kkd0yu4" viewBox="0 0 20 20" refX="11" refY="10" markerWidth="10" markerHeight="10" orient="auto"><path d="M 1 5 L 11 10 L 1 15 Z" style="stroke-linecap: round; stroke-linejoin: round; stroke: #e2e8f0; stroke-width: 1px; fill: #e2e8f0;"/></marker></defs><path data-corner-radius="5" style="fill: none; stroke-linecap: round; stroke-linejoin: round; stroke: #e2e8f0; stroke-width: 2px; marker-end: url('#marker-enmo7qdwm5w1f1pau7kkd0yu4');" d="M660,200L722,200"/></g></g></g></svg>