<?xml version="1.0" encoding="utf-8"?>
<!-- created with bpmn-js / http://bpmn.io -->
<!DOCTYPE svg PUBLIC "-//W3C//DTD SVG 1.1//EN" "http://www.w3.org/Graphics/SVG/1.1/DTD/svg11.dtd">
<svg xmlns="http://www.w3.org/2000/svg" xmlns:xlink="http://www.w3.org/1999/xlink" width="719" height="290" viewBox="155 35 759 330" version="1.1"><g class="djs-group"><g class="djs-element djs-shape" data-element-id="start" style="display: block;" transform="matrix(1 0 0 1 180 182)"><g class="djs-visual"><circle cx="18" cy="18" r="18" style="stroke-linecap: round; stroke-linejoin: round; stroke: #1a1a2e; stroke-width: 2px; fill: #ffffff; fill-opacity: 0.95;"/></g></g><g class="djs-group"><g class="djs-element djs-shape" data-element-id="fork" style="display: block;" transform="matrix(1 0 0 1 280 175)"><g class="djs-visual"><polygon points="25,0 50,25 25,50 0,25" style="stroke-linecap: round; stroke-linejoin: round; stroke: #1a1a2e; stroke-width: 2px; fill: #ffffff; fill-opacity: 0.95;"/><path d="m 23,10 0,12.5 -12.5,0 0,5 12.5,0 0,12.5 5,0 0,-12.5 12.5,0 0,-5 -12.5,0 0,-12.5 -5,0 z" style="fill: #1a1a2e; stroke-linecap: round; stroke-linejoin: round; stroke: #1a1a2e; stroke-width: 1px;"/></g></g><g class="djs-group"><g class="djs-element djs-shape" data-element-id="branchA" style="display: block;" transform="matrix(1 0 0 1 400 60)"><g class="djs-visual"><rect x="0" y="0" width="100" height="80" rx="10" ry="10" style="stroke-linecap: round; stroke-linejoin: round; stroke: #1a1a2e; stroke-width: 2px; fill: #ffffff; fill-opacity: 0.95;"/><text lineHeight="1.2" class="djs-label" style="font-family: Arial, sans-serif; font-size: 12px; font-weight: normal; fill: #1a1a2e;"><tspan x="50" y="43.599999999999994"/></text><path d="m 15,20 c 9.966553,-6.27276 -8.000926,-7.91932 2.968968,-14.938 l -8.802728,0 c -10.969894,7.01868 6.997585,8.66524 -2.968967,14.938 z m -7,-12 l 5,0 m -4.5,3 l 4.5,0 m -3,3 l 5,0m -4,3 l 5,0" style="fill: #ffffff; stroke-linecap: round; stroke-linejoin: round; stroke: #1a1a2e; stroke-width: 1px;"/></g></g><g class="djs-group"><g class="djs-element djs-shape" data-element-id="branchB" style="display: block;" transform="matrix(1 0 0 1 400 260)"><g class="djs-visual"><rect x="0" y="0" width="100" height="80" rx="10" ry="10" style="stroke-linecap: round; stroke-linejoin: round; stroke: #1a1a2e; stroke-width: 2px; fill: #ffffff; fill-opacity: 0.95;"/><text lineHeight="1.2" class="djs-label" style="font-family: Arial, sans-serif; font-size: 12px; font-weight: normal; fill: #1a1a2e;"><tspan x="50" y="43.599999999999994"/></text><path d="m 15,20 c 9.966553,-6.27276 -8.000926,-7.91932 2.968968,-14.938 l -8.802728,0 c -10.969894,7.01868 6.997585,8.66524 -2.968967,14.938 z m -7,-12 l 5,0 m -4.5,3 l 4.5,0 m -3,3 l 5,0m -4,3 l 5,0" style="fill: #ffffff; stroke-linecap: round; stroke-linejoin: round; stroke: #1a1a2e; stroke-width: 1px;"/></g></g><g class="djs-group"><g class="djs-element djs-shape" data-element-id="join" style="display: block;" transform="matrix(1 0 0 1 570 175)"><g class="djs-visual"><polygon points="25,0 50,25 25,50 0,25" style="stroke-linecap: round; stroke-linejoin: round; stroke: #1a1a2e; stroke-width: 2px; fill: #ffffff; fill-opacity: 0.95;"/><path d="m 23,10 0,12.5 -12.5,0 0,5 12.5,0 0,12.5 5,0 0,-12.5 12.5,0 0,-5 -12.5,0 0,-12.5 -5,0 z" style="fill: #1a1a2e; stroke-linecap: round; stroke-linejoin: round; stroke: #1a1a2e; stroke-width: 1px;"/></g></g><g class="djs-group"><g class="djs-element djs-shape" data-element-id="afterJoin" style="display: block;" transform="matrix(1 0 0 1 690 160)"><g class="djs-visual"><rect x="0" y="0" width="100" height="80" rx="10" ry="10" style="stroke-linecap: round; stroke-linejoin: round; stroke: #1a1a2e; stroke-width: 2px; fill: #ffffff; fill-opacity: 0.95;"/><text lineHeight="1.2" class="djs-label" style="font-family: Arial, sans-serif; font-size: 12px; font-weight: normal; fill: #1a1a2e;"><tspan x="50" y="43.599999999999994"/></text><path d="m 15,20 c 9.966553,-6.27276 -8.000926,-7.91932 2.968968,-14.938 l -8.802728,0 c -10.969894,7.01868 6.997585,8.66524 -2.968967,14.938 z m -7,-12 l 5,0 m -4.5,3 l 4.5,0 m -3,3 l 5,0m -4,3 l 5,0" style="fill: #ffffff; stroke-linecap: round; stroke-linejoin: round; stroke: #1a1a2e; stroke-width: 1px;"/></g></g><g class="djs-group"><g class="djs-element djs-shape" data-element-id="end" style="display: block;" transform="matrix(1 0 0 1 852 182)"><g class="djs-visual"><circle cx="18" cy="18" r="18" style="stroke-linecap: round; stroke-linejoin: round; stroke: #1a1a2e; stroke-width: 4px; fill: #ffffff; fill-opacity: 0.95;"/></g></g><g class="djs-group"><g class="djs-element djs-connection" data-element-id="f1" style="display: block;"><g class="djs-visual"><defs><marker id="marker-94vlbj5x3mf3ezzsvkvonlvga" viewBox="0 0 20 20" refX="11" refY="10" markerWidth="10" markerHeight="10" orient="auto"><path d="M 1 5 L 11 10 L 1 15 Z" style="stroke-linecap: round; stroke-linejoin: round; stroke: #1a1a2e; stroke-width: 1px; fill: #1a1a2e;"/></marker></defs><path data-corner-radius="5" style="fill: none; stroke-linecap: round; stroke-linejoin: round; stroke: #1a1a2e; stroke-width: 2px; marker-end: url('#marker-94vlbj5x3mf3ezzsvkvonlvga');" d="M216,200L280,200"/></g><g class="djs-group"><g class="djs-element djs-connection" data-element-id="f2" style="display: block;"><g class="djs-visual"><defs><marker id="marker-cp41oz7h7vbhka494f6q9isfz" viewBox="0 0 20 20" refX="11" refY="10" markerWidth="10" markerHeight="10" orient="auto"><path d="M 1 5 L 11 10 L 1 15 Z" style="stroke-linecap: round; stroke-linejoin: round; stroke: #1a1a2e; stroke-width: 1px; fill: #1a1a2e;"/></marker></defs><path data-corner-radius="5" style="fill: none; stroke-linecap: round; stroke-linejoin: round; stroke: #1a1a2e; stroke-width: 2px; marker-end: url('#marker-cp41oz7h7vbhka494f6q9isfz');" d="M305,175L305,105C305,102.5,307.5,100,310,100L400,100"/></g><g class="djs-group"><g class="djs-element djs-connection" data-element-id="f3" style="display: block;"><g class="djs-visual"><defs><marker id="marker-eozqiv78zzlicjdczm1rlxd79" viewBox="0 0 20 20" refX="11" refY="10" markerWidth="10" markerHeight="10" orient="auto"><path d="M 1 5 L 11 10 L 1 15 Z" style="stroke-linecap: round; stroke-linejoin: round; stroke: #1a1a2e; stroke-width: 1px; fill: #1a1a2e;"/></marker></defs><path data-corner-radius="5" style="fill: none; stroke-linecap: round; stroke-linejoin: round; stroke: #1a1a2e; stroke-width: 2px; marker-end: url('#marker-eozqiv78zzlicjdczm1rlxd79');" d="M305,225L305,295C305,297.5,307.5,300,310,300L400,300"/></g><g class="djs-group"><g class="djs-element djs-connection" data-element-id="f4" style="display: block;"><g class="djs-visual"><defs><marker id="marker-2e9fpkob2ytc5ldkyroj3p567" viewBox="0 0 20 20" refX="11" refY="10" markerWidth="10" markerHeight="10" orient="auto"><path d="M 1 5 L 11 10 L 1 15 Z" style="stroke-linecap: round; stroke-linejoin: round; stroke: #1a1a2e; stroke-width: 1px; fill: #1a1a2e;"/></marker></defs><path data-corner-radius="5" style="fill: none; stroke-linecap: round; stroke-linejoin: round; stroke: #1a1a2e; stroke-width: 2px; marker-end: url('#marker-2e9fpkob2ytc5ldkyroj3p567');" d="M500,100L590,100C592.5,100,595,102.5,595,105L595,175"/></g><g class="djs-group"><g class="djs-element djs-connection" data-element-id="f5" style="display: block;"><g class="djs-visual"><defs><marker id="marker-c9ktw0lwdgdrzqvbmao4m72l7" viewBox="0 0 20 20" refX="11" refY="10" markerWidth="10" markerHeight="10" orient="auto"><path d="M 1 5 L 11 10 L 1 15 Z" style="stroke-linecap: round; stroke-linejoin: round; stroke: #1a1a2e; stroke-width: 1px; fill: #1a1a2e;"/></marker></defs><path data-corner-radius="5" style="fill: none; stroke-linecap: round; stroke-linejoin: round; stroke: #1a1a2e; stroke-width: 2px; marker-end: url('#marker-c9ktw0lwdgdrzqvbmao4m72l7');" d="M500,300L590,300C592.5,300,595,297.5,595,295L595,225"/></g><g class="djs-group"><g class="djs-element djs-connection" data-element-id="f6" style="display: block;"><g class="djs-visual"><defs><marker id="marker-5blnw2kf3cz5mdcp9vlh4d9w5" viewBox="0 0 20 20" refX="11" refY="10" markerWidth="10" markerHeight="10" orient="auto"><path d="M 1 5 L 11 10 L 1 15 Z" style="stroke-linecap: round; stroke-linejoin: round; stroke: #1a1a2e; stroke-width: 1px; fill: #1a1a2e;"/></marker></defs><path data-corner-radius="5" style="fill: none; stroke-linecap: round; stroke-linejoin: round; stroke: #1a1a2e; stroke-width: 2px; marker-end: url('#marker-5blnw2kf3cz5mdcp9vlh4d9w5');" d="M620,200L690,200"/></g><g class="djs-group"><g class="djs-element djs-connection" data-element-id="f7" style="display: block;"><g class="djs-visual"><defs><marker id="marker-6ee57ci0yw7il99fuar03mgfg" viewBox="0 0 20 20" refX="11" refY="10" markerWidth="10" markerHeight="10" orient="auto"><path d="M 1 5 L 11 10 L 1 15 Z" style="stroke-linecap: round; stroke-linejoin: round; stroke: #1a1a2e; stroke-width: 1px; fill: #1a1a2e;"/></marker></defs><path data-corner-radius="5" style="fill: none; stroke-linecap: round; stroke-linejoin: round; stroke: #1a1a2e; stroke-width: 2px; marker-end: url('#marker-6ee57ci0yw7il99fuar03mgfg');" d="M790,200L852,200"/></g></svg>