<svg xmlns="http://www.w3.org/2000/svg" viewBox="0 0 120 120" width="120" height="120">
  <rect x="0" y="0" width="1" height="1" fill="#f5f5f0"/>
  <rect x="20" y="0" width="1" height="1" fill="#f5f5f0"/>
  <rect x="40" y="0" width="1" height="1" fill="#f5f5f0"/>
  <rect x="60" y="0" width="1" height="1" fill="#f5f5f0"/>
  <rect x="80" y="0" width="1" height="1" fill="#f5f5f0"/>
  <rect x="100" y="0" width="1" height="1" fill="#f5f5f0"/>
  <rect x="10" y="10" width="1" height="1" fill="#f5f5f0"/>
  <rect x="30" y="10" width="1" height="1" fill="#f5f5f0"/>
  <rect x="50" y="10" width="1" height="1" fill="#f5f5f0"/>
  <rect x="70" y="10" width="1" height="1" fill="#f5f5f0"/>
  <rect x="90" y="10" width="1" height="1" fill="#f5f5f0"/>
  <rect x="110" y="10" width="1" height="1" fill="#f5f5f0"/>
  <rect x="0" y="20" width="1" height="1" fill="#f5f5f0"/>
  <rect x="20" y="20" width="1" height="1" fill="#f5f5f0"/>
  <rect x="40" y="20" width="1" height="1" fill="#f5f5f0"/>
  <rect x="60" y="20" width="1" height="1" fill="#f5f5f0"/>
  <rect x="80" y="20" width="1" height="1" fill="#f5f5f0"/>
  <rect x="100" y="20" width="1" height="1" fill="#f5f5f0"/>
  <rect x="10" y="30" width="1" height="1" fill="#f5f5f0"/>
  <rect x="30" y="30" width="1" height="1" fill="#f5f5f0"/>
  <rect x="50" y="30" width="1" height="1" fill="#f5f5f0"/>
  <rect x="70" y="30" width="1" height="1" fill="#f5f5f0"/>
  <rect x="90" y="30" width="1" height="1" fill="#f5f5f0"/>
  <rect x="110" y="30" width="1" height="1" fill="#f5f5f0"/>
  <rect x="0" y="40" width="1" height="1" fill="#f5f5f0"/>
  <rect x="20" y="40" width="1" height="1" fill="#f5f5f0"/>
  <rect x="40" y="40" width="1" height="1" fill="#f5f5f0"/>
  <rect x="60" y="40" width="1" height="1" fill="#f5f5f0"/>
  <rect x="80" y="40" width="1" height="1" fill="#f5f5f0"/>
  <rect x="100" y="40" width="1" height="1" fill="#f5f5f0"/>
  <rect x="10" y="50" width="1" height="1" fill="#f5f5f0"/>
  <rect x="30" y="50" width="1" height="1" fill="#f5f5f0"/>
  <rect x="50" y="50" width="1" height="1" fill="#f5f5f0"/>
  <rect x="70" y="50" width="1" height="1" fill="#f5f5f0"/>
  <rect x="90" y="50" width="1" height="1" fill="#f5f5f0"/>
  <rect x="110" y="50" width="1" height="1" fill="#f5f5f0"/>
  <rect x="0" y="60" width="1" height="1" fill="#f5f5f0"/>
  <rect x="20" y="60" width="1" height="1" fill="#f5f5f0"/>
  <rect x="40" y="60" width="1" height="1" fill="#f5f5f0"/>
  <rect x="60" y="60" width="1" height="1" fill="#f5f5f0"/>
  <rect x="80" y="60" width="1" height="1" fill="#f5f5f0"/>
  <rect x="100" y="60" width="1" height="1" fill="#f5f5f0"/>
  <rect x="10" y="70" width="1" height="1" fill="#f5f5f0"/>
  <rect x="30" y="70" width="1" height="1" fill="#f5f5f0"/>
  <rect x="50" y="70" width="1" height="1" fill="#f5f5f0"/>
  <rect x="70" y="70" width="1" height="1" fill="#f5f5f0"/>
  <rect x="90" y="70" width="1" height="1" fill="#f5f5f0"/>
  <rect x="110" y="70" width="1" height="1" fill="#f5f5f0"/>
  <rect x="0" y="80" width="1" height="1" fill="#f5f5f0"/>
  <rect x="20" y="80" width="1" height="1" fill="#f5f5f0"/>
  <rect x="40" y="80" width="1" height="1" fill="#f5f5f0"/>
  <rect x="60" y="80" width="1" height="1" fill="#f5f5f0"/>
  <rect x="80" y="80" width="1" height="1" fill="#f5f5f0"/>
  <rect x="100" y="80" width="1" height="1" fill="#f5f5f0"/>
  <rect x="10" y="90" width="1" height="1" fill="#f5f5f0"/>
  <rect x="30" y="90" width="1" height="1" fill="#f5f5f0"/>
  <rect x="50" y="90" width="1" height="1" fill="#f5f5f0"/>
  <rect x="70" y="90" width="1" height="1" fill="#f5f5f0"/>
  <rect x="90" y="90" width="1" height="1" fill="#f5f5f0"/>
  <rect x="110" y="90" width="1" height="1" fill="#f5f5f0"/>
  <rect x="0" y="100" width="1" height="1" fill="#f5f5f0"/>
  <rect x="20" y="100" width="1" height="1" fill="#f5f5f0"/>
  <rect x="40" y="100" width="1" height="1" fill="#f5f5f0"/>
  <rect x="60" y="100" width="1" height="1" fill="#f5f5f0"/>
  <rect x="80" y="100" width="1" height="1" fill="#f5f5f0"/>
  <rect x="100" y="100" width="1" height="1" fill="#f5f5f0"/>
  <rect x="10" y="110" width="1" height="1" fill="#f5f5f0"/>
  <rect x="30" y="110" width="1" height="1" fill="#f5f5f0"/>
  <rect x="50" y="110" width="1" height="1" fill="#f5f5f0"/>
  <rect x="70" y="110" width="1" height="1" fill="#f5f5f0"/>
  <rect x="90" y="110" width="1" height="1" fill="#f5f5f0"/>
  <rect x="110" y="110" width="1" height="1" fill="#f5f5f0"/>
</svg>
